<?xml version="1.0" encoding="UTF-8"?>
<svg xmlns="http://www.w3.org/2000/svg" xmlns:xlink="http://www.w3.org/1999/xlink" width="32pt" height="32pt" viewBox="0 0 32 32" version="1.1">
<g id="surface1">
<path style=" stroke:none;fill-rule:nonzero;fill:rgb(96.470588%,100%,70.588235%);fill-opacity:1;" d="M 31.113281 14.648438 L 26.316406 9.371094 L 26.316406 3.277344 C 26.292969 2.195312 25.488281 1.328125 24.503906 1.328125 C 23.519531 1.328125 22.710938 2.195312 22.691406 3.277344 L 22.691406 5.382812 L 19.117188 1.453125 C 17.273438 -0.484375 14.367188 -0.484375 12.523438 1.453125 L 0.53125 14.648438 C 0.0585938 15.148438 -0.132812 15.890625 0.03125 16.589844 C 0.199219 17.289062 0.695312 17.835938 1.332031 18.015625 C 1.964844 18.199219 2.640625 17.988281 3.097656 17.46875 L 15.085938 4.277344 C 15.5 3.847656 16.144531 3.847656 16.554688 4.277344 L 28.546875 17.46875 C 29.003906 17.992188 29.675781 18.199219 30.3125 18.015625 C 30.949219 17.835938 31.445312 17.289062 31.609375 16.589844 C 31.777344 15.890625 31.585938 15.148438 31.113281 14.648438 Z M 31.113281 14.648438 "/>
<path style=" stroke:none;fill-rule:nonzero;fill:rgb(96.470588%,100%,70.588235%);fill-opacity:1;" d="M 16.453125 8.066406 C 16.285156 7.882812 16.058594 7.777344 15.824219 7.777344 C 15.585938 7.777344 15.359375 7.882812 15.191406 8.066406 L 4.648438 19.664062 C 4.480469 19.847656 4.386719 20.097656 4.386719 20.359375 L 4.386719 28.820312 C 4.386719 30.804688 5.851562 32.414062 7.65625 32.414062 L 12.878906 32.414062 L 12.878906 23.515625 L 18.773438 23.515625 L 18.773438 32.410156 L 23.996094 32.410156 C 25.800781 32.410156 27.265625 30.800781 27.265625 28.816406 L 27.265625 20.355469 C 27.265625 20.097656 27.171875 19.847656 27.003906 19.660156 Z M 16.453125 8.066406 "/>
</g>
</svg>
