<svg xmlns="http://www.w3.org/2000/svg" width="266.587" height="99.87" viewBox="0 0 266.587 99.87">
  <g id="Grupo_430" data-name="Grupo 430" transform="translate(-970 -1363)">
    <g id="Grupo_398" data-name="Grupo 398" transform="translate(970.211 1363)">
      <path id="Caminho_417" data-name="Caminho 417" d="M129.109,180.76a25.518,25.518,0,0,1-9.932-1.649,12.917,12.917,0,0,1-5.915-4.757,17.354,17.354,0,0,1-2.6-7.531,47.6,47.6,0,0,1-.064-9.965l2.681-30.642q2.2-.3,3.781-.412t3.007-.112q1.275,0,2.8.112t3.673.412L124,155.285a57.235,57.235,0,0,0-.258,6.368,12.856,12.856,0,0,0,.713,4.27,4.282,4.282,0,0,0,2.005,2.362,7.99,7.99,0,0,0,3.684.713,9.074,9.074,0,0,0,3.846-.713,5.465,5.465,0,0,0,2.455-2.362,14.018,14.018,0,0,0,1.422-4.27q.49-2.621.819-6.368l2.543-29.069q2.273-.3,3.82-.412t2.819-.112q1.349,0,2.912.112t3.71.412l-2.681,30.642A49.981,49.981,0,0,1,150,166.823a20.984,20.984,0,0,1-3.917,7.531,16.541,16.541,0,0,1-6.746,4.757A27.863,27.863,0,0,1,129.109,180.76Z" transform="translate(-110.367 -125.618)" fill="#001b3b" fill-rule="evenodd"/>
      <path id="Caminho_418" data-name="Caminho 418" d="M177.09,126.19q1.673-.3,3.035-.45a24.4,24.4,0,0,1,2.635-.149,21.805,21.805,0,0,1,2.793.188q1.444.189,2.475.412l14.811,29.367,2.57-29.367q1.973-.3,3.561-.45t2.859-.149a25.764,25.764,0,0,1,2.684.149q1.409.152,2.958.45l-4.755,53.494a18.85,18.85,0,0,1-2.212.448,20.069,20.069,0,0,1-3.092.223,19.362,19.362,0,0,1-3.348-.262q-1.477-.264-2.137-.411l-14.9-29.22-2.556,29.22a31.1,31.1,0,0,1-6.053.673,30.449,30.449,0,0,1-6.01-.673Z" transform="translate(-128.029 -125.591)" fill="#001b3b" fill-rule="evenodd"/>
      <path id="Caminho_419" data-name="Caminho 419" d="M267.018,151.992a29.854,29.854,0,0,1-1.186,5.844h-14.46l-.931,10.639h18.806a26.936,26.936,0,0,1,.178,5.694,29.479,29.479,0,0,1-1.193,5.919H236.164l4.713-53.868h31.617q.153,1.649.178,3.071a26.019,26.019,0,0,1-.086,2.7,36.774,36.774,0,0,1-1.117,5.918H253.114l-.721,8.244h14.46A28.985,28.985,0,0,1,267.018,151.992Z" transform="translate(-146.177 -125.77)" fill="#001b3b" fill-rule="evenodd"/>
      <path id="Caminho_420" data-name="Caminho 420" d="M291.534,126.215q1.592-.223,3.445-.412a33.3,33.3,0,0,1,3.425-.187,30.623,30.623,0,0,1,3.243.187q1.742.188,3.222.412l8.2,27.87,13.451-27.87q1.518-.223,3.07-.412a25.53,25.53,0,0,1,3.051-.187,28.219,28.219,0,0,1,3.206.187q1.63.188,3.185.412L336.9,179.708q-1.22.223-2.7.449a26.932,26.932,0,0,1-3.879.226,33.564,33.564,0,0,1-6.159-.674l1.664-31.016L315.8,169.147q-1.37.223-2.731.373a22.44,22.44,0,0,1-2.486.149q-1.123,0-2.312-.112a17.544,17.544,0,0,1-2.436-.41l-5.578-20.157-3.512,30.719a29.516,29.516,0,0,1-6.053.674,31.265,31.265,0,0,1-6.01-.674Z" transform="translate(-159.988 -125.598)" fill="#1d3b08" fill-rule="evenodd"/>
      <path id="Caminho_421" data-name="Caminho 421" d="M439.953,137.932H427.441a28.626,28.626,0,0,1-.157-5.918,30.411,30.411,0,0,1,1.18-5.769H466.75q.152,1.649.178,3.072a25.618,25.618,0,0,1-.086,2.7,36.452,36.452,0,0,1-1.117,5.918H453.214l-3.671,41.957a41.927,41.927,0,0,1-6.653.674,39.1,39.1,0,0,1-6.608-.674Z" transform="translate(-200.558 -125.777)" fill="#1d3b08" fill-rule="evenodd"/>
      <path id="Caminho_454" data-name="Caminho 454" d="M397.239,126.14q-2.152-.223-3.826-.375t-3.1-.149q-1.722,0-3.421.149t-3.665.375l-20.873,52.022,12.651-1.814,5.18-12.914c3.173-2.739,6.966-5.526,9.3-5.557a7.364,7.364,0,0,1,3.5,1.711l4.345,16.761,11.4,1.677Z" transform="translate(-182.098 -125.598)" fill="#1d3b08" fill-rule="evenodd"/>
      <path id="Caminho_455" data-name="Caminho 455" d="M396.721,140.511l1.187,8,5.3.641-4.312,5.183,1.483,6-3.992-3.426-8.774,6.844,4.157-10.71-5.355-6.032,8.155.891Z" transform="translate(-188.945 -129.838)" fill="#ffbe00" fill-rule="evenodd"/>
    </g>
    <g id="Grupo_401" data-name="Grupo 401" transform="translate(970 1422.797)">
      <g id="Grupo_399" data-name="Grupo 399" transform="translate(0)">
        <path id="Caminho_422" data-name="Caminho 422" d="M112.645,217.459c.15-.023.3-.04.46-.052s.311-.017.459-.017.3.006.444.017.286.029.425.052l-1.249,7.08a12.149,12.149,0,0,0-.208,2.031,2.147,2.147,0,0,0,.444,1.519,2.084,2.084,0,0,0,1.536.459,2.943,2.943,0,0,0,1.275-.252,2.325,2.325,0,0,0,.894-.755,4.474,4.474,0,0,0,.608-1.258,13.152,13.152,0,0,0,.416-1.744l1.233-7.08c.161-.023.315-.04.46-.052s.3-.017.459-.017q.209,0,.444.017a4.092,4.092,0,0,1,.425.052l-1.319,7.514a12.325,12.325,0,0,1-.6,2.222,5.02,5.02,0,0,1-.972,1.622,3.866,3.866,0,0,1-1.475.99,5.864,5.864,0,0,1-2.108.338,3.7,3.7,0,0,1-2.666-.85,3.522,3.522,0,0,1-.877-2.638,7.365,7.365,0,0,1,.052-.85c.035-.3.08-.619.139-.955Z" transform="translate(-111.155 -217.147)" fill="#1a1818" fill-rule="evenodd"/>
        <path id="Caminho_423" data-name="Caminho 423" d="M126.079,226.16q.191-1.041.3-1.788a8.906,8.906,0,0,0,.113-1.3c0-.15,0-.269-.008-.355a2.867,2.867,0,0,0-.044-.321q.191-.034.417-.052c.151-.012.289-.017.416-.017s.246.006.391.017a3.6,3.6,0,0,1,.391.052,2.229,2.229,0,0,1,.052.321c.012.121.018.281.018.477a4.367,4.367,0,0,1-.044.626c-.029.2-.06.387-.1.572a4.088,4.088,0,0,1,2.144-1.979,2.857,2.857,0,0,1,1.085-.208,2.252,2.252,0,0,1,1.623.555,2.278,2.278,0,0,1,.581,1.717,5.373,5.373,0,0,1-.035.582c-.024.214-.052.419-.089.615l-.989,5.643q-.209.034-.451.052t-.435.017q-.191,0-.424-.017a3.534,3.534,0,0,1-.408-.052l.937-5.346q.051-.277.078-.539c.017-.174.026-.323.026-.451a1.3,1.3,0,0,0-.32-.989,1.22,1.22,0,0,0-.859-.3,1.7,1.7,0,0,0-.92.286,3.168,3.168,0,0,0-.85.842,6.293,6.293,0,0,0-.72,1.371,9.953,9.953,0,0,0-.511,1.875l-.573,3.246q-.209.034-.451.052c-.163.012-.307.017-.434.017s-.269-.006-.425-.017a3.563,3.563,0,0,1-.408-.052Z" transform="translate(-115.167 -218.524)" fill="#1a1818" fill-rule="evenodd"/>
        <path id="Caminho_424" data-name="Caminho 424" d="M139.6,219.139a5,5,0,0,1,.089-.954q.089-.451.225-.92c.162-.023.335-.041.521-.052s.347-.017.486-.017.3.006.478.017.344.029.494.052a6.35,6.35,0,0,1-.1.964,8.354,8.354,0,0,1-.225.911,4.8,4.8,0,0,1-.52.044q-.278.008-.487.008c-.127,0-.284,0-.468-.008a3.745,3.745,0,0,1-.487-.044Zm.017,3.211H138.54a5.011,5.011,0,0,1,.044-.677,3.055,3.055,0,0,1,.182-.695h2.777l-1.562,8.9a3.129,3.129,0,0,1-.444.044q-.251.01-.444.009c-.128,0-.26,0-.4-.009a2.942,2.942,0,0,1-.4-.044Z" transform="translate(-118.932 -217.091)" fill="#1a1818" fill-rule="evenodd"/>
        <path id="Caminho_425" data-name="Caminho 425" d="M143.9,222.472c.138-.024.286-.04.444-.052s.311-.018.46-.018c.172,0,.338.006.494.018s.3.028.444.052l1.006,7.151,2.239-4.495a15.281,15.281,0,0,0,.641-1.485,3.8,3.8,0,0,0,.261-1.049v-.122c.15-.024.306-.04.469-.052s.323-.018.486-.018.344.006.512.018.321.028.46.052v.089a2.118,2.118,0,0,1-.089.581,4.907,4.907,0,0,1-.33.79q-.989,1.891-2.021,3.739t-2.056,3.705a8.311,8.311,0,0,1-.9.052c-.128,0-.28,0-.46-.009a3.214,3.214,0,0,1-.459-.044Z" transform="translate(-120.543 -218.585)" fill="#1a1818" fill-rule="evenodd"/>
        <path id="Caminho_426" data-name="Caminho 426" d="M157.367,226.317a10,10,0,0,0,1.466-.355,4.027,4.027,0,0,0,.929-.435,1.45,1.45,0,0,0,.486-.495,1.193,1.193,0,0,0,.139-.573.842.842,0,0,0-.277-.651,1.155,1.155,0,0,0-.8-.252,2.13,2.13,0,0,0-1.022.252,3.159,3.159,0,0,0-.842.66,3.994,3.994,0,0,0-.633.937,5.438,5.438,0,0,0-.4,1.085l.954-.174Zm-1.093,1.458a2.714,2.714,0,0,0,.591,1.753,2.148,2.148,0,0,0,1.666.59,5.153,5.153,0,0,0,1.319-.165,11.481,11.481,0,0,0,1.128-.355,1.9,1.9,0,0,1,.225.622,3.893,3.893,0,0,1,.069.729,4.227,4.227,0,0,1-.633.226c-.249.07-.509.13-.781.182s-.547.093-.824.121a7.372,7.372,0,0,1-.764.044,4.858,4.858,0,0,1-1.727-.27,2.986,2.986,0,0,1-1.145-.746,2.864,2.864,0,0,1-.642-1.128,4.8,4.8,0,0,1-.2-1.415,6.37,6.37,0,0,1,.355-2.088,5.93,5.93,0,0,1,1.022-1.849,5.311,5.311,0,0,1,1.6-1.319,4.283,4.283,0,0,1,2.074-.5,2.729,2.729,0,0,1,1.814.563,1.871,1.871,0,0,1,.667,1.5,2.348,2.348,0,0,1-.374,1.327,3.2,3.2,0,0,1-1.031.964,6.532,6.532,0,0,1-1.555.659,14.557,14.557,0,0,1-1.952.416Z" transform="translate(-123.598 -218.525)" fill="#1a1818" fill-rule="evenodd"/>
        <path id="Caminho_427" data-name="Caminho 427" d="M165.311,231.379q.192-1.094.425-2.308t.435-2.351q.2-1.137.338-2.083a10.89,10.89,0,0,0,.139-1.5c0-.15,0-.269-.009-.355a2.829,2.829,0,0,0-.044-.321,3.112,3.112,0,0,1,.416-.044c.15,0,.289-.008.416-.008s.245,0,.39.008a2.655,2.655,0,0,1,.391.044,2.243,2.243,0,0,1,.051.3c.012.11.018.263.018.46a5.844,5.844,0,0,1-.052.78,5.272,5.272,0,0,1,.495-.589,3.87,3.87,0,0,1,.6-.5,2.885,2.885,0,0,1,1.918-.468,1.278,1.278,0,0,1,.269.052,4.6,4.6,0,0,1-.079.79,2.163,2.163,0,0,1-.269.755c-.044-.011-.119-.023-.217-.035a2.668,2.668,0,0,0-.287-.017,2.369,2.369,0,0,0-1.882.833,5.371,5.371,0,0,0-1.033,2.568l-.711,3.992a5.112,5.112,0,0,1-.711.052h-.434Z" transform="translate(-126.683 -218.587)" fill="#1a1818" fill-rule="evenodd"/>
        <path id="Caminho_428" data-name="Caminho 428" d="M175.033,227.133a5.979,5.979,0,0,1-.555-.261,2.2,2.2,0,0,1-.538-.4,1.982,1.982,0,0,1-.408-.616,2.187,2.187,0,0,1-.165-.894,2.453,2.453,0,0,1,.989-2.022,3.439,3.439,0,0,1,1.12-.547,5.117,5.117,0,0,1,1.449-.191,5.677,5.677,0,0,1,1.354.157,4.5,4.5,0,0,1,1.006.347,4.291,4.291,0,0,1-.5,1.3,5.685,5.685,0,0,0-.816-.286,4.033,4.033,0,0,0-1.111-.148,2.649,2.649,0,0,0-1.241.26.935.935,0,0,0-.495.9.977.977,0,0,0,.235.666,2.2,2.2,0,0,0,.842.512l.382.174c.222.1.449.214.686.33a2.918,2.918,0,0,1,.642.425,2.041,2.041,0,0,1,.469.608,1.911,1.911,0,0,1,.182.877,3.059,3.059,0,0,1-.311,1.432,2.767,2.767,0,0,1-.859.989,3.834,3.834,0,0,1-1.266.582,6.067,6.067,0,0,1-1.555.191,7.636,7.636,0,0,1-1.362-.122,4.981,4.981,0,0,1-1.1-.311,4.163,4.163,0,0,1,.13-.73,2.535,2.535,0,0,1,.287-.659,5.122,5.122,0,0,0,1.058.3,6.186,6.186,0,0,0,1.128.113,4.065,4.065,0,0,0,.815-.079,2.126,2.126,0,0,0,.66-.243,1.253,1.253,0,0,0,.444-.444,1.341,1.341,0,0,0,.165-.694,1.007,1.007,0,0,0-.311-.807,3.127,3.127,0,0,0-.885-.494Z" transform="translate(-128.629 -218.526)" fill="#1a1818" fill-rule="evenodd"/>
        <path id="Caminho_429" data-name="Caminho 429" d="M184.174,219.139a5.062,5.062,0,0,1,.089-.954,9.374,9.374,0,0,1,.226-.92c.161-.023.335-.041.521-.052s.347-.017.486-.017.3.006.477.017.344.029.494.052a6.355,6.355,0,0,1-.1.964,8.535,8.535,0,0,1-.225.911,4.787,4.787,0,0,1-.521.044c-.185.006-.347.008-.487.008s-.283,0-.468-.008a3.746,3.746,0,0,1-.487-.044Zm.018,3.211h-1.076a5.131,5.131,0,0,1,.044-.677,3.06,3.06,0,0,1,.182-.695h2.777l-1.563,8.9a3.11,3.11,0,0,1-.444.044q-.251.01-.444.009c-.128,0-.26,0-.4-.009a2.939,2.939,0,0,1-.4-.044Z" transform="translate(-131.714 -217.091)" fill="#1a1818" fill-rule="evenodd"/>
        <path id="Caminho_430" data-name="Caminho 430" d="M194.553,222.256a2.733,2.733,0,0,0-.434-.069q-.226-.017-.5-.017a3.025,3.025,0,0,0-1.555.4,3.91,3.91,0,0,0-1.18,1.066,5,5,0,0,0-.755,1.511,5.821,5.821,0,0,0-.26,1.727,2.386,2.386,0,0,0,.3,1.293.98.98,0,0,0,.885.46,1.809,1.809,0,0,0,1.042-.347,3.586,3.586,0,0,0,.919-.964,6.948,6.948,0,0,0,.729-1.44,10.127,10.127,0,0,0,.486-1.761l.33-1.858Zm1.007,3.8q-.192,1.041-.3,1.787a9.508,9.508,0,0,0-.1,1.3v.355a1.794,1.794,0,0,0,.034.321,3.957,3.957,0,0,1-.407.052c-.145.012-.281.018-.408.018s-.26-.006-.4-.018a3.26,3.26,0,0,1-.382-.052,2.921,2.921,0,0,1-.06-.3,3.056,3.056,0,0,1-.026-.461,5.283,5.283,0,0,1,.044-.581,4.408,4.408,0,0,1,.131-.686,5.746,5.746,0,0,1-.521.782,4.268,4.268,0,0,1-.729.728,3.772,3.772,0,0,1-.928.539,2.907,2.907,0,0,1-1.1.208,2.069,2.069,0,0,1-1.736-.755,3.254,3.254,0,0,1-.59-2.057,7.723,7.723,0,0,1,.382-2.4,6.365,6.365,0,0,1,1.128-2.083,5.576,5.576,0,0,1,1.866-1.466,5.715,5.715,0,0,1,2.577-.555c.127,0,.26.006.4.017s.254.024.347.035q.192-1.006.3-1.736a9.245,9.245,0,0,0,.1-1.284v-.347c0-.08-.006-.178-.017-.295a3.937,3.937,0,0,1,.46-.053c.178-.012.331-.017.459-.017s.246,0,.391.008a2.449,2.449,0,0,1,.39.044,4.411,4.411,0,0,1,.052.642,8.609,8.609,0,0,1-.079,1.024q-.077.625-.182,1.2Z" transform="translate(-133.208 -217.05)" fill="#1a1818" fill-rule="evenodd"/>
        <path id="Caminho_431" data-name="Caminho 431" d="M206.745,223.733a2.719,2.719,0,0,0-.433-.069q-.227-.017-.5-.017a3.021,3.021,0,0,0-1.555.4,3.9,3.9,0,0,0-1.18,1.066,4.965,4.965,0,0,0-.755,1.511,5.8,5.8,0,0,0-.261,1.727,2.38,2.38,0,0,0,.3,1.293.98.98,0,0,0,.885.46,1.809,1.809,0,0,0,1.042-.347,3.586,3.586,0,0,0,.919-.964,6.672,6.672,0,0,0,.72-1.44,10.732,10.732,0,0,0,.477-1.761l.347-1.858Zm.99,3.8q-.192,1.041-.3,1.788a8.824,8.824,0,0,0-.114,1.3c0,.151,0,.27.009.355a2.793,2.793,0,0,0,.044.321,3.978,3.978,0,0,1-.416.052c-.151.012-.29.018-.416.018s-.243-.006-.382-.018a3.983,3.983,0,0,1-.4-.052,3.911,3.911,0,0,1-.052-.391c-.011-.134-.018-.3-.018-.494a4.3,4.3,0,0,1,.044-.52q.044-.33.1-.59a4.546,4.546,0,0,1-1.225,1.483,3.78,3.78,0,0,1-.919.53,2.9,2.9,0,0,1-1.1.208,2.044,2.044,0,0,1-1.727-.755,3.288,3.288,0,0,1-.581-2.057,7.7,7.7,0,0,1,.382-2.4,6.364,6.364,0,0,1,1.128-2.083,5.6,5.6,0,0,1,1.857-1.466,5.7,5.7,0,0,1,2.586-.555,8.452,8.452,0,0,1,1.258.1,6.015,6.015,0,0,1,1.12.269Z" transform="translate(-136.705 -218.527)" fill="#1a1818" fill-rule="evenodd"/>
        <path id="Caminho_432" data-name="Caminho 432" d="M219.03,222.256a2.727,2.727,0,0,0-.434-.069q-.226-.017-.5-.017a3.024,3.024,0,0,0-1.555.4,3.911,3.911,0,0,0-1.18,1.066,4.981,4.981,0,0,0-.755,1.511,5.8,5.8,0,0,0-.261,1.727,2.386,2.386,0,0,0,.3,1.293.98.98,0,0,0,.885.46,1.808,1.808,0,0,0,1.042-.347,3.588,3.588,0,0,0,.92-.964,6.949,6.949,0,0,0,.728-1.44,10.2,10.2,0,0,0,.486-1.761l.33-1.858Zm1.006,3.8q-.191,1.041-.295,1.787a9.5,9.5,0,0,0-.1,1.3v.355a1.86,1.86,0,0,0,.034.321,3.95,3.95,0,0,1-.407.052c-.145.012-.281.018-.408.018s-.26-.006-.4-.018a3.276,3.276,0,0,1-.382-.052,2.905,2.905,0,0,1-.06-.3,3.054,3.054,0,0,1-.026-.461,5.307,5.307,0,0,1,.044-.581,4.5,4.5,0,0,1,.13-.686,5.673,5.673,0,0,1-.521.782,4.287,4.287,0,0,1-.728.728,3.792,3.792,0,0,1-.929.539,2.908,2.908,0,0,1-1.1.208,2.07,2.07,0,0,1-1.736-.755,3.259,3.259,0,0,1-.59-2.057,7.7,7.7,0,0,1,.382-2.4,6.351,6.351,0,0,1,1.128-2.083,5.583,5.583,0,0,1,1.866-1.466,5.717,5.717,0,0,1,2.577-.555c.127,0,.26.006.4.017s.255.024.348.035q.191-1.006.3-1.736a9.348,9.348,0,0,0,.1-1.284v-.347c0-.08-.006-.178-.017-.295a3.943,3.943,0,0,1,.459-.053q.27-.017.46-.017c.116,0,.246,0,.391.008a2.461,2.461,0,0,1,.39.044,4.317,4.317,0,0,1,.052.642,8.573,8.573,0,0,1-.078,1.024q-.078.625-.183,1.2Z" transform="translate(-140.226 -217.05)" fill="#1a1818" fill-rule="evenodd"/>
        <path id="Caminho_433" data-name="Caminho 433" d="M227.685,226.317a9.959,9.959,0,0,0,1.466-.355,4,4,0,0,0,.929-.435,1.46,1.46,0,0,0,.487-.5,1.2,1.2,0,0,0,.138-.573.837.837,0,0,0-.277-.651,1.151,1.151,0,0,0-.8-.252,2.133,2.133,0,0,0-1.024.252,3.17,3.17,0,0,0-.842.66,3.974,3.974,0,0,0-.633.937,5.488,5.488,0,0,0-.4,1.085l.954-.174Zm-1.093,1.458a2.71,2.71,0,0,0,.59,1.753,2.148,2.148,0,0,0,1.666.59,5.157,5.157,0,0,0,1.319-.165,11.422,11.422,0,0,0,1.128-.355,1.869,1.869,0,0,1,.225.622,3.836,3.836,0,0,1,.07.729,4.229,4.229,0,0,1-.633.226c-.249.07-.509.13-.781.182s-.547.093-.825.121a7.355,7.355,0,0,1-.763.044,4.859,4.859,0,0,1-1.727-.27,2.98,2.98,0,0,1-1.145-.746,2.874,2.874,0,0,1-.643-1.128,4.8,4.8,0,0,1-.2-1.415,6.385,6.385,0,0,1,.355-2.088,5.961,5.961,0,0,1,1.024-1.849,5.325,5.325,0,0,1,1.6-1.319,4.287,4.287,0,0,1,2.074-.5,2.731,2.731,0,0,1,1.814.563,1.871,1.871,0,0,1,.667,1.5,2.348,2.348,0,0,1-.374,1.327,3.2,3.2,0,0,1-1.032.964,6.513,6.513,0,0,1-1.555.659,14.573,14.573,0,0,1-1.952.416Z" transform="translate(-143.762 -218.525)" fill="#1a1818" fill-rule="evenodd"/>
        <path id="Caminho_434" data-name="Caminho 434" d="M246.4,222.256a2.733,2.733,0,0,0-.434-.069q-.227-.017-.5-.017a3.022,3.022,0,0,0-1.555.4,3.9,3.9,0,0,0-1.18,1.066,5,5,0,0,0-.755,1.511,5.819,5.819,0,0,0-.26,1.727,2.386,2.386,0,0,0,.3,1.293.978.978,0,0,0,.885.46,1.806,1.806,0,0,0,1.041-.347,3.589,3.589,0,0,0,.92-.964,6.982,6.982,0,0,0,.729-1.44,10.191,10.191,0,0,0,.486-1.761l.33-1.858Zm1.006,3.8q-.192,1.041-.295,1.787a9.518,9.518,0,0,0-.1,1.3v.355a1.8,1.8,0,0,0,.035.321,3.934,3.934,0,0,1-.408.052c-.145.012-.28.018-.408.018s-.26-.006-.4-.018a3.261,3.261,0,0,1-.382-.052c-.023-.093-.044-.192-.06-.3a3.177,3.177,0,0,1-.026-.461,5.288,5.288,0,0,1,.044-.581,4.408,4.408,0,0,1,.13-.686,5.667,5.667,0,0,1-.521.782,4.291,4.291,0,0,1-.729.728,3.775,3.775,0,0,1-.929.539,2.9,2.9,0,0,1-1.1.208,2.069,2.069,0,0,1-1.736-.755,3.255,3.255,0,0,1-.59-2.057,7.7,7.7,0,0,1,.382-2.4,6.354,6.354,0,0,1,1.129-2.083,5.58,5.58,0,0,1,1.866-1.466,5.72,5.72,0,0,1,2.577-.555c.127,0,.26.006.4.017s.255.024.347.035q.191-1.006.3-1.736a9.231,9.231,0,0,0,.1-1.284v-.347c0-.08-.006-.178-.017-.295a3.974,3.974,0,0,1,.461-.053q.267-.017.459-.017c.115,0,.246,0,.39.008a2.472,2.472,0,0,1,.391.044,4.422,4.422,0,0,1,.052.642,8.592,8.592,0,0,1-.079,1.024q-.078.625-.182,1.2Z" transform="translate(-148.072 -217.05)" fill="#1a1818" fill-rule="evenodd"/>
        <path id="Caminho_435" data-name="Caminho 435" d="M255.705,230.145a2.239,2.239,0,0,0,1.4-.444,3.408,3.408,0,0,0,.946-1.119,5.6,5.6,0,0,0,.538-1.466,6.893,6.893,0,0,0,.174-1.484,2.269,2.269,0,0,0-.444-1.511,1.561,1.561,0,0,0-1.257-.521,2.177,2.177,0,0,0-1.39.451,3.567,3.567,0,0,0-.937,1.128,5.412,5.412,0,0,0-.53,1.466,7.2,7.2,0,0,0-.164,1.466,2.333,2.333,0,0,0,.425,1.511,1.508,1.508,0,0,0,1.241.521Zm-.173,1.371a3.122,3.122,0,0,1-2.429-.894,3.608,3.608,0,0,1-.816-2.524,7.408,7.408,0,0,1,.3-2,6.041,6.041,0,0,1,.911-1.911,5.212,5.212,0,0,1,1.545-1.425,4.158,4.158,0,0,1,2.195-.563,3.137,3.137,0,0,1,2.448.9,3.644,3.644,0,0,1,.815,2.533,7.368,7.368,0,0,1-.3,2.014,6.17,6.17,0,0,1-.9,1.9,4.963,4.963,0,0,1-1.544,1.414,4.28,4.28,0,0,1-2.222.558Z" transform="translate(-151.616 -218.516)" fill="#1a1818" fill-rule="evenodd"/>
        <path id="Caminho_436" data-name="Caminho 436" d="M271.149,217.488h6.612a4.647,4.647,0,0,1-.278,1.56h-4.825l-.622,3.558h3.852a4.527,4.527,0,0,1-.277,1.562h-3.855q-.191,1.076-.373,2.126c-.121.7-.245,1.409-.373,2.127h4.964c-.035.3-.064.561-.089.78a3.328,3.328,0,0,1-.191.764h-6.732Z" transform="translate(-156.404 -217.176)" fill="#1a1818" fill-rule="evenodd"/>
        <path id="Caminho_437" data-name="Caminho 437" d="M282.286,227.133a5.8,5.8,0,0,1-.554-.261,2.174,2.174,0,0,1-.538-.4,2,2,0,0,1-.408-.616,2.187,2.187,0,0,1-.165-.894,2.453,2.453,0,0,1,.99-2.022,3.442,3.442,0,0,1,1.119-.547,5.125,5.125,0,0,1,1.448-.191,5.685,5.685,0,0,1,1.354.157,4.511,4.511,0,0,1,1.006.347,4.271,4.271,0,0,1-.5,1.3,5.6,5.6,0,0,0-.815-.286,4.03,4.03,0,0,0-1.111-.148,2.651,2.651,0,0,0-1.241.26.935.935,0,0,0-.5.9.978.978,0,0,0,.235.666,2.194,2.194,0,0,0,.842.512l.382.174c.22.1.448.214.686.33a2.906,2.906,0,0,1,.642.425,2.051,2.051,0,0,1,.469.608,1.9,1.9,0,0,1,.182.877,3.059,3.059,0,0,1-.311,1.432,2.768,2.768,0,0,1-.859.989,3.831,3.831,0,0,1-1.267.582,6.055,6.055,0,0,1-1.553.191,7.629,7.629,0,0,1-1.362-.122,4.981,4.981,0,0,1-1.1-.311,4.175,4.175,0,0,1,.13-.73,2.556,2.556,0,0,1,.286-.659,5.137,5.137,0,0,0,1.059.3,6.178,6.178,0,0,0,1.129.113,4.062,4.062,0,0,0,.815-.079,2.118,2.118,0,0,0,.66-.243,1.253,1.253,0,0,0,.444-.444,1.34,1.34,0,0,0,.165-.694,1.007,1.007,0,0,0-.311-.807,3.129,3.129,0,0,0-.885-.494Z" transform="translate(-159.385 -218.526)" fill="#1a1818" fill-rule="evenodd"/>
        <path id="Caminho_438" data-name="Caminho 438" d="M291.195,222.86h-1.406a4.157,4.157,0,0,1,.053-.669,3.868,3.868,0,0,1,.191-.7h1.389q.089-.451.155-.919a6.613,6.613,0,0,0,.07-.972v-.277a3.094,3.094,0,0,1,.833-.261,4.918,4.918,0,0,1,.833-.086c.012.1.02.208.026.311s.008.213.008.33a8.094,8.094,0,0,1-.138,1.336l-.1.538h2.239a4.44,4.44,0,0,1-.052.7,3.975,3.975,0,0,1-.174.669H292.9l-.676,3.765c-.058.267-.111.541-.156.825a4.8,4.8,0,0,0-.069.772.844.844,0,0,0,.269.721,1.182,1.182,0,0,0,.72.2,3.021,3.021,0,0,0,.537-.044,4.758,4.758,0,0,0,.487-.113,3.06,3.06,0,0,1,.086.382,2.7,2.7,0,0,1,.035.451v.252a2.348,2.348,0,0,1-.016.269,4.75,4.75,0,0,1-.591.13,4.808,4.808,0,0,1-.78.06,6.086,6.086,0,0,1-1.016-.078,2.038,2.038,0,0,1-.79-.3,1.453,1.453,0,0,1-.512-.59,2.251,2.251,0,0,1-.182-.982,4.375,4.375,0,0,1,.06-.7q.061-.373.13-.772Z" transform="translate(-162.376 -217.601)" fill="#1a1818" fill-rule="evenodd"/>
        <path id="Caminho_439" data-name="Caminho 439" d="M303.363,223.733a2.717,2.717,0,0,0-.433-.069q-.227-.017-.5-.017a3.029,3.029,0,0,0-1.555.4,3.91,3.91,0,0,0-1.179,1.066,5,5,0,0,0-.755,1.511,5.819,5.819,0,0,0-.26,1.727,2.386,2.386,0,0,0,.3,1.293.978.978,0,0,0,.885.46,1.808,1.808,0,0,0,1.041-.347,3.575,3.575,0,0,0,.919-.964,6.671,6.671,0,0,0,.721-1.44,10.8,10.8,0,0,0,.476-1.761l.347-1.858Zm.989,3.8q-.191,1.041-.3,1.788a8.89,8.89,0,0,0-.113,1.3c0,.151,0,.27.008.355a2.764,2.764,0,0,0,.044.321,3.989,3.989,0,0,1-.416.052c-.151.012-.289.018-.416.018s-.243-.006-.382-.018a4.014,4.014,0,0,1-.4-.052c-.024-.127-.04-.257-.052-.391s-.017-.3-.017-.494a4.052,4.052,0,0,1,.044-.52q.045-.33.1-.59a4.449,4.449,0,0,1-.5.772,4.393,4.393,0,0,1-.721.711,3.776,3.776,0,0,1-.919.53,2.906,2.906,0,0,1-1.1.208,2.044,2.044,0,0,1-1.727-.755,3.288,3.288,0,0,1-.581-2.057,7.683,7.683,0,0,1,.382-2.4,6.349,6.349,0,0,1,1.128-2.083,5.606,5.606,0,0,1,1.856-1.466,5.706,5.706,0,0,1,2.586-.555,8.45,8.45,0,0,1,1.257.1,6.012,6.012,0,0,1,1.121.269Z" transform="translate(-164.409 -218.527)" fill="#1a1818" fill-rule="evenodd"/>
        <path id="Caminho_440" data-name="Caminho 440" d="M315.653,222.256a2.69,2.69,0,0,0-.433-.069c-.151-.012-.319-.017-.5-.017a3.028,3.028,0,0,0-1.555.4,3.9,3.9,0,0,0-1.179,1.066,5,5,0,0,0-.755,1.511,5.842,5.842,0,0,0-.26,1.727,2.386,2.386,0,0,0,.3,1.293.981.981,0,0,0,.886.46,1.81,1.81,0,0,0,1.041-.347,3.584,3.584,0,0,0,.919-.964,6.916,6.916,0,0,0,.73-1.44,10.263,10.263,0,0,0,.486-1.761l.329-1.858Zm1.007,3.8q-.191,1.041-.295,1.787a9.508,9.508,0,0,0-.1,1.3v.355a1.864,1.864,0,0,0,.035.321,3.96,3.96,0,0,1-.407.052c-.145.012-.281.018-.407.018s-.261-.006-.4-.018a3.235,3.235,0,0,1-.382-.052,3.012,3.012,0,0,1-.061-.3,3.156,3.156,0,0,1-.026-.461,5.459,5.459,0,0,1,.044-.581,4.572,4.572,0,0,1,.133-.686,5.683,5.683,0,0,1-.521.782,4.338,4.338,0,0,1-.728.728,3.791,3.791,0,0,1-.929.539,2.905,2.905,0,0,1-1.1.208,2.069,2.069,0,0,1-1.736-.755,3.258,3.258,0,0,1-.589-2.057,7.7,7.7,0,0,1,.382-2.4,6.364,6.364,0,0,1,1.128-2.083,5.574,5.574,0,0,1,1.866-1.466,5.716,5.716,0,0,1,2.577-.555c.126,0,.259.006.4.017s.255.024.347.035q.191-1.006.3-1.736a9.348,9.348,0,0,0,.1-1.284v-.347a2.871,2.871,0,0,0-.018-.295,3.984,3.984,0,0,1,.461-.053c.178-.012.332-.017.46-.017s.246,0,.39.008a2.472,2.472,0,0,1,.391.044,4.5,4.5,0,0,1,.052.642,8.582,8.582,0,0,1-.078,1.024q-.078.625-.183,1.2Z" transform="translate(-167.936 -217.05)" fill="#1a1818" fill-rule="evenodd"/>
        <path id="Caminho_441" data-name="Caminho 441" d="M324.952,230.145a2.237,2.237,0,0,0,1.4-.444,3.416,3.416,0,0,0,.946-1.119,5.6,5.6,0,0,0,.539-1.466,6.94,6.94,0,0,0,.172-1.484,2.273,2.273,0,0,0-.444-1.511,1.562,1.562,0,0,0-1.258-.521,2.172,2.172,0,0,0-1.388.451,3.549,3.549,0,0,0-.937,1.128,5.388,5.388,0,0,0-.529,1.466,7.208,7.208,0,0,0-.165,1.466,2.329,2.329,0,0,0,.425,1.511,1.508,1.508,0,0,0,1.241.521Zm-.173,1.371a3.124,3.124,0,0,1-2.429-.894,3.608,3.608,0,0,1-.817-2.524,7.433,7.433,0,0,1,.3-2,6.057,6.057,0,0,1,.912-1.911,5.221,5.221,0,0,1,1.545-1.424,4.159,4.159,0,0,1,2.195-.563,3.137,3.137,0,0,1,2.448.9,3.644,3.644,0,0,1,.814,2.533,7.369,7.369,0,0,1-.295,2.014,6.2,6.2,0,0,1-.9,1.9A4.952,4.952,0,0,1,327,230.957a4.276,4.276,0,0,1-2.221.558Z" transform="translate(-171.472 -218.516)" fill="#1a1818" fill-rule="evenodd"/>
        <path id="Caminho_442" data-name="Caminho 442" d="M344.458,222.256a2.756,2.756,0,0,0-.435-.069c-.151-.012-.317-.017-.5-.017a3.019,3.019,0,0,0-1.553.4,3.9,3.9,0,0,0-1.181,1.066,4.964,4.964,0,0,0-.755,1.511,5.776,5.776,0,0,0-.261,1.727,2.386,2.386,0,0,0,.3,1.293.977.977,0,0,0,.884.46,1.81,1.81,0,0,0,1.042-.347,3.591,3.591,0,0,0,.921-.964,6.979,6.979,0,0,0,.727-1.44,10,10,0,0,0,.486-1.761l.331-1.858Zm1.005,3.8q-.191,1.041-.295,1.787a9.389,9.389,0,0,0-.1,1.3v.355a1.942,1.942,0,0,0,.034.321,3.95,3.95,0,0,1-.407.052c-.145.012-.28.018-.408.018s-.26-.006-.4-.018a3.265,3.265,0,0,1-.381-.052c-.023-.093-.044-.192-.062-.3a3.312,3.312,0,0,1-.025-.461,5.127,5.127,0,0,1,.044-.581,4.49,4.49,0,0,1,.13-.686,5.737,5.737,0,0,1-.52.782,4.3,4.3,0,0,1-.73.728,3.776,3.776,0,0,1-.929.539,2.9,2.9,0,0,1-1.1.208,2.068,2.068,0,0,1-1.736-.755,3.258,3.258,0,0,1-.589-2.057,7.723,7.723,0,0,1,.38-2.4,6.367,6.367,0,0,1,1.129-2.083,5.583,5.583,0,0,1,1.866-1.466,5.717,5.717,0,0,1,2.577-.555c.127,0,.26.006.4.017s.255.024.347.035q.191-1.006.295-1.736a9.14,9.14,0,0,0,.1-1.284v-.347a2.845,2.845,0,0,0-.017-.295,3.975,3.975,0,0,1,.46-.053q.27-.017.46-.017c.115,0,.245,0,.39.008a2.457,2.457,0,0,1,.391.044,4.325,4.325,0,0,1,.052.642,8.6,8.6,0,0,1-.079,1.024q-.078.625-.182,1.2Z" transform="translate(-176.192 -217.05)" fill="#1a1818" fill-rule="evenodd"/>
        <path id="Caminho_443" data-name="Caminho 443" d="M353.114,226.316a9.991,9.991,0,0,0,1.466-.355,4.007,4.007,0,0,0,.928-.435,1.45,1.45,0,0,0,.486-.495,1.194,1.194,0,0,0,.139-.573.839.839,0,0,0-.277-.65,1.153,1.153,0,0,0-.8-.252,2.133,2.133,0,0,0-1.022.252,3.158,3.158,0,0,0-.842.66,4.018,4.018,0,0,0-.634.937,5.529,5.529,0,0,0-.4,1.086l.953-.174Zm-1.093,1.458a2.714,2.714,0,0,0,.591,1.753,2.148,2.148,0,0,0,1.666.59,5.148,5.148,0,0,0,1.318-.165,11.419,11.419,0,0,0,1.128-.355,1.9,1.9,0,0,1,.225.622,3.9,3.9,0,0,1,.07.729,4.258,4.258,0,0,1-.633.226c-.249.07-.508.13-.782.182s-.547.093-.823.121a7.373,7.373,0,0,1-.765.044,4.853,4.853,0,0,1-1.726-.27,2.977,2.977,0,0,1-1.144-.744,2.872,2.872,0,0,1-.642-1.128,4.77,4.77,0,0,1-.2-1.415,6.37,6.37,0,0,1,.355-2.088,5.933,5.933,0,0,1,1.024-1.849,5.307,5.307,0,0,1,1.595-1.322,4.287,4.287,0,0,1,2.074-.5,2.731,2.731,0,0,1,1.814.563,1.87,1.87,0,0,1,.666,1.5,2.347,2.347,0,0,1-.373,1.327,3.185,3.185,0,0,1-1.033.964,6.484,6.484,0,0,1-1.552.659,14.622,14.622,0,0,1-1.955.416Z" transform="translate(-179.73 -218.524)" fill="#1a1818" fill-rule="evenodd"/>
        <path id="Caminho_444" data-name="Caminho 444" d="M368.031,217.46c.15-.023.315-.04.494-.052s.35-.017.513-.017.317.006.468.017.3.029.435.052l1.7,7.723,4.426-7.723a4.082,4.082,0,0,1,.451-.052q.261-.017.5-.017c.161,0,.324.006.486.017a4.062,4.062,0,0,1,.434.052l-1.6,12.478c-.152.023-.3.04-.444.052s-.292.017-.442.017-.311-.006-.452-.017a3.6,3.6,0,0,1-.382-.052l1.285-9.494-3.992,6.908a5.66,5.66,0,0,1-.711.052,4.371,4.371,0,0,1-.675-.052l-1.563-6.942-2.031,9.528c-.128.023-.26.04-.4.052s-.283.017-.433.017-.279-.006-.416-.017-.272-.029-.4-.052Z" transform="translate(-184.025 -217.148)" fill="#1a1818" fill-rule="evenodd"/>
        <path id="Caminho_445" data-name="Caminho 445" d="M390.081,223.733a2.732,2.732,0,0,0-.435-.069c-.151-.012-.319-.017-.5-.017a3.022,3.022,0,0,0-1.553.4,3.905,3.905,0,0,0-1.181,1.066,5,5,0,0,0-.755,1.511,5.8,5.8,0,0,0-.26,1.727,2.38,2.38,0,0,0,.3,1.293.978.978,0,0,0,.884.46,1.8,1.8,0,0,0,1.041-.347,3.579,3.579,0,0,0,.921-.964,6.7,6.7,0,0,0,.72-1.44,10.731,10.731,0,0,0,.477-1.761l.348-1.858Zm.99,3.8q-.191,1.041-.3,1.787a8.8,8.8,0,0,0-.113,1.3c0,.151,0,.27.008.355a2.988,2.988,0,0,0,.044.321,3.927,3.927,0,0,1-.416.052c-.151.012-.29.018-.416.018s-.243-.006-.382-.018a3.993,3.993,0,0,1-.4-.052c-.023-.127-.04-.257-.052-.391s-.018-.3-.018-.494a4.362,4.362,0,0,1,.044-.52q.044-.33.1-.59a4.566,4.566,0,0,1-1.223,1.483,3.816,3.816,0,0,1-.921.53,2.9,2.9,0,0,1-1.1.208,2.044,2.044,0,0,1-1.727-.755,3.288,3.288,0,0,1-.581-2.057,7.7,7.7,0,0,1,.381-2.4,6.366,6.366,0,0,1,1.128-2.083,5.607,5.607,0,0,1,1.857-1.466,5.7,5.7,0,0,1,2.586-.555,8.464,8.464,0,0,1,1.259.1,6.026,6.026,0,0,1,1.119.269Z" transform="translate(-189.275 -218.527)" fill="#1a1818" fill-rule="evenodd"/>
        <path id="Caminho_446" data-name="Caminho 446" d="M397.474,222.86h-1.4a4.167,4.167,0,0,1,.052-.669,3.932,3.932,0,0,1,.191-.7H397.7q.089-.451.156-.919a6.618,6.618,0,0,0,.069-.972v-.277a3.094,3.094,0,0,1,.833-.261,4.916,4.916,0,0,1,.833-.086c.012.1.02.208.026.311s.008.213.008.33a8.1,8.1,0,0,1-.138,1.336l-.1.538h2.239a4.537,4.537,0,0,1-.052.7,3.911,3.911,0,0,1-.175.669h-2.222l-.677,3.765c-.058.267-.111.541-.156.825a4.8,4.8,0,0,0-.07.772.844.844,0,0,0,.27.721,1.179,1.179,0,0,0,.719.2,3.03,3.03,0,0,0,.539-.044,4.858,4.858,0,0,0,.487-.113,3.22,3.22,0,0,1,.086.382,2.724,2.724,0,0,1,.034.451v.252a2.2,2.2,0,0,1-.016.269,4.723,4.723,0,0,1-.591.13,4.806,4.806,0,0,1-.781.06,6.082,6.082,0,0,1-1.015-.078,2.044,2.044,0,0,1-.79-.3,1.446,1.446,0,0,1-.511-.59,2.248,2.248,0,0,1-.183-.982,4.376,4.376,0,0,1,.061-.7q.06-.373.13-.772Z" transform="translate(-192.851 -217.601)" fill="#1a1818" fill-rule="evenodd"/>
        <path id="Caminho_447" data-name="Caminho 447" d="M406.754,230.145a2.237,2.237,0,0,0,1.4-.444,3.406,3.406,0,0,0,.945-1.119,5.6,5.6,0,0,0,.539-1.466,6.935,6.935,0,0,0,.172-1.484,2.277,2.277,0,0,0-.442-1.511,1.563,1.563,0,0,0-1.259-.521,2.177,2.177,0,0,0-1.388.451,3.575,3.575,0,0,0-.937,1.128,5.39,5.39,0,0,0-.529,1.466,7.217,7.217,0,0,0-.165,1.466,2.333,2.333,0,0,0,.424,1.511,1.511,1.511,0,0,0,1.242.521Zm-.174,1.371a3.122,3.122,0,0,1-2.429-.894,3.605,3.605,0,0,1-.817-2.524,7.378,7.378,0,0,1,.3-2,6.04,6.04,0,0,1,.911-1.911,5.212,5.212,0,0,1,1.545-1.425,4.159,4.159,0,0,1,2.195-.563,3.137,3.137,0,0,1,2.448.9,3.644,3.644,0,0,1,.815,2.533,7.37,7.37,0,0,1-.3,2.014,6.2,6.2,0,0,1-.9,1.9,4.963,4.963,0,0,1-1.544,1.414,4.281,4.281,0,0,1-2.222.558Z" transform="translate(-194.928 -218.516)" fill="#1a1818" fill-rule="evenodd"/>
        <path id="Caminho_448" data-name="Caminho 448" d="M428.039,223.44q.209-.034.444-.052c.156-.011.3-.017.444-.017.161,0,.315.006.459.017s.287.029.426.052q-.278,1.528-.546,3.029t-.531,3.028a7.522,7.522,0,0,1-1.631.435,11.4,11.4,0,0,1-1.84.156,5.487,5.487,0,0,1-2.013-.348,4.1,4.1,0,0,1-1.493-.981,4.155,4.155,0,0,1-.919-1.527,5.916,5.916,0,0,1-.311-1.97,10.816,10.816,0,0,1,.426-3.054,7.739,7.739,0,0,1,1.284-2.577,6.139,6.139,0,0,1,5.093-2.438,7.607,7.607,0,0,1,1.536.139,6.1,6.1,0,0,1,1.119.33,6.606,6.606,0,0,1-.2.729,4.4,4.4,0,0,1-.339.728,5.232,5.232,0,0,0-.971-.277,6.506,6.506,0,0,0-1.128-.086,4.343,4.343,0,0,0-2.212.537,4.578,4.578,0,0,0-1.527,1.433,6.445,6.445,0,0,0-.886,2.039,9.745,9.745,0,0,0-.286,2.36,3.5,3.5,0,0,0,.833,2.569,3.122,3.122,0,0,0,2.308.832,6.074,6.074,0,0,0,.86-.06,3.431,3.431,0,0,0,.737-.182Z" transform="translate(-199.866 -217.089)" fill="#1a1818" fill-rule="evenodd"/>
        <path id="Caminho_449" data-name="Caminho 449" d="M434.512,231.379q.191-1.094.426-2.308t.434-2.351q.2-1.137.338-2.083a10.888,10.888,0,0,0,.139-1.5c0-.15,0-.269-.008-.355a2.846,2.846,0,0,0-.044-.321,3.135,3.135,0,0,1,.417-.044c.15,0,.287-.008.416-.008s.246,0,.391.008a2.646,2.646,0,0,1,.39.044,2.351,2.351,0,0,1,.052.3q.017.165.017.46a5.727,5.727,0,0,1-.052.78,5.183,5.183,0,0,1,.495-.589,3.9,3.9,0,0,1,.6-.5,2.886,2.886,0,0,1,1.918-.468,1.268,1.268,0,0,1,.269.052,4.526,4.526,0,0,1-.079.79,2.164,2.164,0,0,1-.267.755c-.047-.011-.119-.023-.218-.035a2.639,2.639,0,0,0-.286-.017,2.372,2.372,0,0,0-1.883.833,5.37,5.37,0,0,0-1.032,2.568l-.711,3.992a5.118,5.118,0,0,1-.711.052h-.437Z" transform="translate(-203.875 -218.587)" fill="#1a1818" fill-rule="evenodd"/>
        <path id="Caminho_450" data-name="Caminho 450" d="M445.782,230.145a2.24,2.24,0,0,0,1.4-.444,3.426,3.426,0,0,0,.946-1.119,5.628,5.628,0,0,0,.538-1.466,6.889,6.889,0,0,0,.173-1.484,2.273,2.273,0,0,0-.444-1.511,1.563,1.563,0,0,0-1.258-.521,2.173,2.173,0,0,0-1.388.451,3.571,3.571,0,0,0-.938,1.128,5.414,5.414,0,0,0-.529,1.466,7.208,7.208,0,0,0-.165,1.466,2.333,2.333,0,0,0,.426,1.511,1.508,1.508,0,0,0,1.241.521Zm-.174,1.371a3.125,3.125,0,0,1-2.43-.894,3.609,3.609,0,0,1-.815-2.524,7.433,7.433,0,0,1,.295-2,6.072,6.072,0,0,1,.911-1.911,5.219,5.219,0,0,1,1.545-1.424,4.158,4.158,0,0,1,2.194-.563,3.136,3.136,0,0,1,2.448.9,3.644,3.644,0,0,1,.816,2.533,7.365,7.365,0,0,1-.3,2.014,6.2,6.2,0,0,1-.9,1.9,4.98,4.98,0,0,1-1.544,1.414,4.286,4.286,0,0,1-2.221.558Z" transform="translate(-206.12 -218.516)" fill="#1a1818" fill-rule="evenodd"/>
        <path id="Caminho_451" data-name="Caminho 451" d="M456.571,227.133a5.961,5.961,0,0,1-.554-.261,2.206,2.206,0,0,1-.54-.4,1.994,1.994,0,0,1-.407-.616,2.189,2.189,0,0,1-.165-.894,2.45,2.45,0,0,1,.989-2.022,3.439,3.439,0,0,1,1.12-.547,5.118,5.118,0,0,1,1.448-.191,5.666,5.666,0,0,1,1.353.157,4.5,4.5,0,0,1,1.008.347,4.311,4.311,0,0,1-.5,1.3,5.656,5.656,0,0,0-.816-.286,4.029,4.029,0,0,0-1.111-.148,2.651,2.651,0,0,0-1.241.26.933.933,0,0,0-.494.9.978.978,0,0,0,.234.666,2.2,2.2,0,0,0,.844.512l.381.174c.222.1.449.214.686.33a2.916,2.916,0,0,1,.642.425,2.042,2.042,0,0,1,.469.608,1.9,1.9,0,0,1,.183.877,3.051,3.051,0,0,1-.311,1.432,2.767,2.767,0,0,1-.859.989,3.826,3.826,0,0,1-1.266.582,6.061,6.061,0,0,1-1.555.191,7.645,7.645,0,0,1-1.363-.122,4.985,4.985,0,0,1-1.1-.311,4.112,4.112,0,0,1,.131-.73,2.556,2.556,0,0,1,.285-.659,5.147,5.147,0,0,0,1.06.3,6.166,6.166,0,0,0,1.128.113,4.06,4.06,0,0,0,.815-.079,2.107,2.107,0,0,0,.659-.243,1.237,1.237,0,0,0,.444-.444,1.34,1.34,0,0,0,.165-.694,1.008,1.008,0,0,0-.311-.807,3.117,3.117,0,0,0-.885-.494Z" transform="translate(-209.361 -218.526)" fill="#1a1818" fill-rule="evenodd"/>
        <path id="Caminho_452" data-name="Caminho 452" d="M465.914,227.133a5.875,5.875,0,0,1-.555-.261,2.173,2.173,0,0,1-.538-.4,1.983,1.983,0,0,1-.408-.616,2.177,2.177,0,0,1-.165-.894,2.45,2.45,0,0,1,.989-2.022,3.438,3.438,0,0,1,1.12-.547,5.124,5.124,0,0,1,1.449-.191,5.682,5.682,0,0,1,1.353.157,4.5,4.5,0,0,1,1.006.347,4.29,4.29,0,0,1-.5,1.3,5.6,5.6,0,0,0-.815-.286,4.036,4.036,0,0,0-1.111-.148,2.645,2.645,0,0,0-1.241.26.933.933,0,0,0-.495.9.977.977,0,0,0,.234.666,2.2,2.2,0,0,0,.842.512l.382.174c.219.1.448.214.686.33a2.9,2.9,0,0,1,.642.425,2.041,2.041,0,0,1,.469.608,1.9,1.9,0,0,1,.183.877,3.059,3.059,0,0,1-.311,1.432,2.764,2.764,0,0,1-.859.989,3.834,3.834,0,0,1-1.266.582,6.069,6.069,0,0,1-1.555.191,7.646,7.646,0,0,1-1.363-.122,4.982,4.982,0,0,1-1.1-.311,4.182,4.182,0,0,1,.13-.73,2.563,2.563,0,0,1,.287-.659,5.122,5.122,0,0,0,1.058.3,6.182,6.182,0,0,0,1.128.113,4.063,4.063,0,0,0,.816-.079,2.116,2.116,0,0,0,.66-.243,1.261,1.261,0,0,0,.444-.444,1.34,1.34,0,0,0,.165-.694,1.008,1.008,0,0,0-.311-.807,3.126,3.126,0,0,0-.885-.494Z" transform="translate(-212.039 -218.526)" fill="#1a1818" fill-rule="evenodd"/>
        <path id="Caminho_453" data-name="Caminho 453" d="M476.8,230.145a2.237,2.237,0,0,0,1.4-.444,3.409,3.409,0,0,0,.946-1.119,5.6,5.6,0,0,0,.538-1.466,6.887,6.887,0,0,0,.173-1.484,2.273,2.273,0,0,0-.444-1.511,1.561,1.561,0,0,0-1.257-.521,2.174,2.174,0,0,0-1.389.451,3.569,3.569,0,0,0-.938,1.128,5.382,5.382,0,0,0-.528,1.466,7.157,7.157,0,0,0-.165,1.466,2.332,2.332,0,0,0,.426,1.511,1.508,1.508,0,0,0,1.241.521Zm-.175,1.371a3.123,3.123,0,0,1-2.429-.894,3.6,3.6,0,0,1-.816-2.524,7.4,7.4,0,0,1,.3-2,6.057,6.057,0,0,1,.911-1.911,5.22,5.22,0,0,1,1.544-1.425,4.162,4.162,0,0,1,2.2-.563,3.137,3.137,0,0,1,2.448.9,3.643,3.643,0,0,1,.815,2.533,7.367,7.367,0,0,1-.3,2.014,6.2,6.2,0,0,1-.9,1.9,4.976,4.976,0,0,1-1.545,1.414,4.286,4.286,0,0,1-2.221.558Z" transform="translate(-215.015 -218.516)" fill="#1a1818" fill-rule="evenodd"/>
      </g>
      <g id="Grupo_400" data-name="Grupo 400" transform="translate(0 21.486)">
        <g id="Grupo_380" data-name="Grupo 380" transform="translate(0 0)">
          <path id="Caminho_456" data-name="Caminho 456" d="M149.047,260.471a3.92,3.92,0,0,1,.416,1.609,5.153,5.153,0,0,1-.814.284q-.435.113-.89.189t-.9.114q-.445.037-.8.038a5.019,5.019,0,0,1-3.814-1.4,5.371,5.371,0,0,1-1.335-3.862,11.482,11.482,0,0,1,.474-3.294,8.582,8.582,0,0,1,1.41-2.812,7.112,7.112,0,0,1,2.319-1.96,6.693,6.693,0,0,1,3.2-.738,8.894,8.894,0,0,1,1.713.142,6.271,6.271,0,0,1,1.2.35,7.244,7.244,0,0,1-.218.795,4.862,4.862,0,0,1-.371.795,5.99,5.99,0,0,0-1.079-.3,6.76,6.76,0,0,0-1.193-.1,4.788,4.788,0,0,0-2.424.587,4.97,4.97,0,0,0-1.675,1.562,7.018,7.018,0,0,0-.965,2.225,10.574,10.574,0,0,0-.312,2.575,3.894,3.894,0,0,0,.9,2.783,3.421,3.421,0,0,0,2.6.947,6.328,6.328,0,0,0,1.335-.132,6.418,6.418,0,0,0,1.221-.4Zm8.973-6.266a2.83,2.83,0,0,0-.473-.076c-.164-.012-.348-.018-.549-.018a3.305,3.305,0,0,0-1.7.435,4.253,4.253,0,0,0-1.287,1.166,5.443,5.443,0,0,0-.823,1.647,6.327,6.327,0,0,0-.284,1.884,2.608,2.608,0,0,0,.322,1.41,1.071,1.071,0,0,0,.965.5,1.974,1.974,0,0,0,1.136-.378,3.932,3.932,0,0,0,1-1.051,7.327,7.327,0,0,0,.786-1.571,11.831,11.831,0,0,0,.52-1.922l.378-2.025Zm1.079,4.145.947-5.414a6.6,6.6,0,0,0-1.221-.293,9.147,9.147,0,0,0-1.373-.106,6.231,6.231,0,0,0-2.821.605,6.119,6.119,0,0,0-2.024,1.6,6.919,6.919,0,0,0-1.231,2.272,8.4,8.4,0,0,0-.417,2.622,3.591,3.591,0,0,0,.636,2.244,2.228,2.228,0,0,0,1.884.823,3.161,3.161,0,0,0,1.2-.227,4.112,4.112,0,0,0,1-.577,4.774,4.774,0,0,0,.785-.776,4.718,4.718,0,0,0,.549-.843q-.056.284-.106.644a4.635,4.635,0,0,0-.048.568c0,.212.007.394.019.539a3.941,3.941,0,0,0,.057.424c.139.026.284.044.435.057s.29.019.417.019.29-.006.454-.019a4.409,4.409,0,0,0,.454-.057,3.225,3.225,0,0,1-.047-.35q-.01-.141-.01-.388a9.739,9.739,0,0,1,.123-1.42q.124-.814.332-1.95Zm2.331,4.127q.208-1.193.464-2.517t.474-2.566q.217-1.24.371-2.272a12.007,12.007,0,0,0,.152-1.637c0-.164,0-.294-.01-.389a3.27,3.27,0,0,0-.048-.35,3.169,3.169,0,0,1,.454-.048c.164-.007.318-.009.455-.009s.268,0,.424.009a2.661,2.661,0,0,1,.424.048,2.368,2.368,0,0,1,.057.331,5,5,0,0,1,.019.5,6.391,6.391,0,0,1-.056.852,5.817,5.817,0,0,1,.539-.644,4.217,4.217,0,0,1,.653-.549,3.035,3.035,0,0,1,1.761-.53c.1,0,.212.007.332.019a1.4,1.4,0,0,1,.293.057,5,5,0,0,1-.086.861,2.325,2.325,0,0,1-.293.823,1.906,1.906,0,0,0-.236-.038,2.641,2.641,0,0,0-.312-.02,2.587,2.587,0,0,0-2.054.909,5.855,5.855,0,0,0-1.127,2.8l-.777,4.354a5.4,5.4,0,0,1-.776.057h-.473l-.625-.057Zm8.652-9.977q.189-1.06.294-1.827a13.627,13.627,0,0,0,.123-1.373v-.36c0-.089-.007-.2-.02-.34a4.411,4.411,0,0,1,.5-.057c.2-.013.363-.019.5-.019s.268.006.424.019a4.454,4.454,0,0,1,.445.057,1.542,1.542,0,0,1,.038.34v.36c0,.139-.01.306-.028.5s-.041.4-.066.616-.057.436-.094.662-.076.441-.114.643l-1.477,7.989a3.181,3.181,0,0,0-.057.511,1.152,1.152,0,0,0,.085.483.609.609,0,0,0,.219.265.676.676,0,0,0,.292.106,2.644,2.644,0,0,0,.313.019,2.259,2.259,0,0,0,.388-.038c.145-.025.268-.053.371-.076a3.591,3.591,0,0,1,.17,1.174.944.944,0,0,1-.01.142.91.91,0,0,0-.01.122,3.423,3.423,0,0,1-.689.142,6.807,6.807,0,0,1-.8.048,4,4,0,0,1-.9-.094,1.651,1.651,0,0,1-.7-.341,1.6,1.6,0,0,1-.454-.653,2.754,2.754,0,0,1-.162-1.013,4.075,4.075,0,0,1,.076-.757q.076-.4.152-.777l1.193-6.475Zm7.572,10.2a3.413,3.413,0,0,1-2.649-.975,3.942,3.942,0,0,1-.89-2.755,8.064,8.064,0,0,1,.322-2.186,6.591,6.591,0,0,1,.993-2.082,5.675,5.675,0,0,1,1.685-1.553,4.527,4.527,0,0,1,2.395-.615,3.421,3.421,0,0,1,2.67.984,3.979,3.979,0,0,1,.89,2.764,8.049,8.049,0,0,1-.322,2.2,6.732,6.732,0,0,1-.985,2.074,5.412,5.412,0,0,1-1.685,1.543,4.662,4.662,0,0,1-2.423.606Zm.189-1.5a2.444,2.444,0,0,0,1.524-.483,3.727,3.727,0,0,0,1.032-1.221,6.1,6.1,0,0,0,.587-1.6,7.54,7.54,0,0,0,.19-1.619,2.473,2.473,0,0,0-.483-1.647,1.7,1.7,0,0,0-1.374-.566,2.371,2.371,0,0,0-1.515.492,3.881,3.881,0,0,0-1.022,1.23,5.893,5.893,0,0,0-.578,1.6,7.869,7.869,0,0,0-.18,1.6,2.546,2.546,0,0,0,.464,1.647,1.646,1.646,0,0,0,1.353.568Zm9.106-3.295a6.429,6.429,0,0,1-.606-.283,2.479,2.479,0,0,1-.587-.435,2.192,2.192,0,0,1-.445-.673,2.4,2.4,0,0,1-.18-.975,2.669,2.669,0,0,1,1.079-2.205,3.714,3.714,0,0,1,1.219-.6,5.586,5.586,0,0,1,1.581-.208,6.249,6.249,0,0,1,1.477.17,4.978,4.978,0,0,1,1.1.378,4.668,4.668,0,0,1-.548,1.42,6.1,6.1,0,0,0-.891-.313,4.426,4.426,0,0,0-1.211-.159,2.885,2.885,0,0,0-1.354.284,1.018,1.018,0,0,0-.537.983,1.072,1.072,0,0,0,.255.729,2.424,2.424,0,0,0,.919.558l.417.19q.36.171.748.36a3.118,3.118,0,0,1,.7.464,2.218,2.218,0,0,1,.512.662,2.081,2.081,0,0,1,.2.954,3.338,3.338,0,0,1-.34,1.562,3.034,3.034,0,0,1-.937,1.079,4.2,4.2,0,0,1-1.382.636,6.566,6.566,0,0,1-1.7.208,8.285,8.285,0,0,1-1.487-.132,5.423,5.423,0,0,1-1.2-.34,4.465,4.465,0,0,1,.142-.795,2.782,2.782,0,0,1,.312-.719,5.586,5.586,0,0,0,1.155.331,6.73,6.73,0,0,0,1.231.123,4.42,4.42,0,0,0,.89-.085,2.318,2.318,0,0,0,.719-.265,1.364,1.364,0,0,0,.482-.482,1.463,1.463,0,0,0,.18-.758,1.1,1.1,0,0,0-.341-.88,3.386,3.386,0,0,0-.965-.539l-.607-.246Zm15.278-9.049a4.928,4.928,0,0,1,.6-.047c.234-.007.439-.01.616-.01s.382,0,.577.01a4.024,4.024,0,0,1,.52.047l1.854,13.612a10.579,10.579,0,0,1-1.1.057,7.711,7.711,0,0,1-.927-.057l-.36-3.2h-4.581l-1.382,3.2a8.212,8.212,0,0,1-1.022.057q-.265,0-.52-.01a3.175,3.175,0,0,1-.464-.048l6.191-13.611Zm1.589,8.747-.777-6.569-2.877,6.569Zm6.172-5.112q.189-1.06.293-1.827a13.358,13.358,0,0,0,.123-1.373v-.36c0-.089-.007-.2-.02-.34a4.449,4.449,0,0,1,.5-.057q.294-.019.5-.019c.126,0,.269.006.424.019a4.451,4.451,0,0,1,.445.057,1.545,1.545,0,0,1,.038.34v.36c0,.139-.01.306-.029.5s-.041.4-.066.616-.056.436-.094.662-.076.441-.114.643l-1.477,7.989a3.182,3.182,0,0,0-.057.511,1.138,1.138,0,0,0,.086.483.608.608,0,0,0,.218.265.684.684,0,0,0,.293.106,2.626,2.626,0,0,0,.312.019,2.246,2.246,0,0,0,.388-.038c.146-.025.269-.053.371-.076a3.591,3.591,0,0,1,.171,1.173.942.942,0,0,1-.01.142.912.912,0,0,0-.01.122,3.42,3.42,0,0,1-.689.142,6.8,6.8,0,0,1-.8.048,3.988,3.988,0,0,1-.9-.094,1.655,1.655,0,0,1-.7-.341,1.6,1.6,0,0,1-.454-.653,2.773,2.773,0,0,1-.159-1.013,4,4,0,0,1,.076-.757q.075-.4.152-.777l1.193-6.475Zm6.021,8.5a3.833,3.833,0,0,0,.511.094,4.54,4.54,0,0,0,.567.038,3.686,3.686,0,0,0,1.619-.36,3.885,3.885,0,0,0,1.287-.994,4.793,4.793,0,0,0,.852-1.505,5.561,5.561,0,0,0,.312-1.892,2.743,2.743,0,0,0-.424-1.619,1.449,1.449,0,0,0-1.259-.6,2.249,2.249,0,0,0-.947.208,2.471,2.471,0,0,0-.842.663,4.451,4.451,0,0,0-.691,1.183,8.014,8.014,0,0,0-.473,1.789L216.01,261Zm-.36-8.519q.17-1.041.284-1.808a9.48,9.48,0,0,0,.113-1.373v-.378c0-.089-.006-.2-.019-.322a4.436,4.436,0,0,1,.5-.057c.2-.013.362-.019.5-.019s.268,0,.424.01a3.268,3.268,0,0,1,.445.047c.012.127.022.243.028.35s.01.225.01.35a8.907,8.907,0,0,1-.094,1.136q-.094.7-.208,1.305l-.435,2.48a5.643,5.643,0,0,1,.54-.644,3.229,3.229,0,0,1,.672-.53,3.449,3.449,0,0,1,.851-.361,4.041,4.041,0,0,1,1.079-.132,2.536,2.536,0,0,1,2.066.918,3.959,3.959,0,0,1,.757,2.584,7.886,7.886,0,0,1-.407,2.546,6.04,6.04,0,0,1-1.231,2.119,5.865,5.865,0,0,1-2.063,1.458,7.235,7.235,0,0,1-2.906.539,7.9,7.9,0,0,1-1.438-.132,6.291,6.291,0,0,1-1.193-.322l1.723-9.768Zm11.02,6.133a2.958,2.958,0,0,0,.64,1.912,2.342,2.342,0,0,0,1.817.644,5.616,5.616,0,0,0,1.438-.18,12.274,12.274,0,0,0,1.231-.389,2.093,2.093,0,0,1,.246.682,4.27,4.27,0,0,1,.076.795,4.517,4.517,0,0,1-.689.246q-.408.114-.852.2t-.9.132a8.1,8.1,0,0,1-.833.047,5.292,5.292,0,0,1-1.884-.293,3.254,3.254,0,0,1-1.249-.814,3.129,3.129,0,0,1-.7-1.231,5.255,5.255,0,0,1-.218-1.543,6.941,6.941,0,0,1,.389-2.281,6.485,6.485,0,0,1,1.117-2.016,5.819,5.819,0,0,1,1.742-1.439,4.674,4.674,0,0,1,2.262-.548,2.967,2.967,0,0,1,1.978.615,2.036,2.036,0,0,1,.729,1.638,2.561,2.561,0,0,1-.406,1.447,3.475,3.475,0,0,1-1.127,1.051,7.122,7.122,0,0,1-1.7.72,16.127,16.127,0,0,1-2.13.454l-.985.151Zm1.193-1.589a10.725,10.725,0,0,0,1.6-.388,4.325,4.325,0,0,0,1.013-.474,1.579,1.579,0,0,0,.53-.539,1.312,1.312,0,0,0,.151-.624.914.914,0,0,0-.3-.71,1.256,1.256,0,0,0-.871-.274,2.329,2.329,0,0,0-1.117.274,3.472,3.472,0,0,0-.919.719,4.358,4.358,0,0,0-.689,1.022,5.961,5.961,0,0,0-.435,1.183l1.041-.19Zm6.247,5.452q.208-1.193.464-2.517t.473-2.566q.218-1.24.371-2.272a11.873,11.873,0,0,0,.152-1.637c0-.164,0-.293-.01-.389a3.065,3.065,0,0,0-.048-.35,3.164,3.164,0,0,1,.455-.048c.164-.007.318-.01.454-.01s.268,0,.424.01a2.657,2.657,0,0,1,.424.048,2.249,2.249,0,0,1,.057.331q.022.25.02.5a6.383,6.383,0,0,1-.057.851,5.813,5.813,0,0,1,.539-.643,4.214,4.214,0,0,1,.653-.549,3.035,3.035,0,0,1,1.761-.53c.1,0,.212.007.332.019a1.411,1.411,0,0,1,.293.057,5,5,0,0,1-.085.861,2.359,2.359,0,0,1-.293.823,1.95,1.95,0,0,0-.236-.038,2.684,2.684,0,0,0-.313-.02,2.587,2.587,0,0,0-2.054.909,5.855,5.855,0,0,0-1.126,2.8l-.777,4.354a5.436,5.436,0,0,1-.777.057h-.473l-.625-.057Zm8.615-8.216h-1.536a4.606,4.606,0,0,1,.057-.729,4.276,4.276,0,0,1,.208-.766h1.515q.094-.492.17-1a7.162,7.162,0,0,0,.076-1.06v-.3a3.386,3.386,0,0,1,.909-.284,5.294,5.294,0,0,1,.908-.094c.013.114.022.227.029.341s.01.233.01.36a8.853,8.853,0,0,1-.152,1.457l-.114.587h2.442a4.762,4.762,0,0,1-.057.766,4.288,4.288,0,0,1-.19.729h-2.423l-.738,4.109q-.094.435-.171.9a5.307,5.307,0,0,0-.076.843.919.919,0,0,0,.294.785,1.284,1.284,0,0,0,.785.219,3.354,3.354,0,0,0,.587-.048,5.213,5.213,0,0,0,.53-.123,3.526,3.526,0,0,1,.094.417,2.97,2.97,0,0,1,.038.492v.274a2.317,2.317,0,0,1-.019.292,4.9,4.9,0,0,1-.644.142,5.166,5.166,0,0,1-.851.066,6.625,6.625,0,0,1-1.108-.085,2.233,2.233,0,0,1-.86-.322,1.589,1.589,0,0,1-.559-.644,2.448,2.448,0,0,1-.2-1.07,4.785,4.785,0,0,1,.066-.766q.066-.407.142-.843l.833-4.638Zm8.613,8.443a3.413,3.413,0,0,1-2.649-.975,3.942,3.942,0,0,1-.89-2.755,8.057,8.057,0,0,1,.322-2.187,6.61,6.61,0,0,1,.993-2.082,5.665,5.665,0,0,1,1.685-1.553,4.527,4.527,0,0,1,2.395-.615,3.419,3.419,0,0,1,2.67.984,3.979,3.979,0,0,1,.89,2.764,8.048,8.048,0,0,1-.322,2.2,6.752,6.752,0,0,1-.985,2.074,5.4,5.4,0,0,1-1.685,1.543,4.662,4.662,0,0,1-2.423.606Zm.189-1.5a2.445,2.445,0,0,0,1.524-.483,3.731,3.731,0,0,0,1.033-1.221,6.158,6.158,0,0,0,.587-1.6,7.585,7.585,0,0,0,.189-1.619,2.478,2.478,0,0,0-.482-1.647,1.7,1.7,0,0,0-1.377-.566,2.372,2.372,0,0,0-1.515.492,3.881,3.881,0,0,0-1.022,1.23,5.891,5.891,0,0,0-.577,1.6,7.865,7.865,0,0,0-.18,1.6,2.546,2.546,0,0,0,.464,1.647,1.646,1.646,0,0,0,1.353.566Z" transform="translate(-140.896 -248.525)" fill="#1a1818" fill-rule="evenodd"/>
          <path id="Caminho_457" data-name="Caminho 457" d="M286.475,248.847q.72-.113,1.382-.159t1.306-.048a8.083,8.083,0,0,1,1.666.171,4.4,4.4,0,0,1,1.448.567,3,3,0,0,1,1.013,1.051,3.222,3.222,0,0,1,.378,1.637,4.474,4.474,0,0,1-.322,1.761,4.991,4.991,0,0,1-.8,1.317,5.1,5.1,0,0,1-1.06.936,8.385,8.385,0,0,1-1.07.607l2.48,5.792a10.891,10.891,0,0,1-1.1.057,8.537,8.537,0,0,1-1.023-.057l-2.632-6.342.19-.057a2.46,2.46,0,0,0,.407-.132,5.306,5.306,0,0,0,.662-.322,7.564,7.564,0,0,0,.766-.5,3.988,3.988,0,0,0,.729-.7,3.643,3.643,0,0,0,.54-.908,2.914,2.914,0,0,0,.208-1.126,1.923,1.923,0,0,0-.643-1.629,2.868,2.868,0,0,0-1.78-.492c-.2,0-.382.006-.539.018s-.337.031-.54.057L286,262.477l-.483.038c-.17.013-.338.019-.5.019s-.312,0-.482-.01a3.214,3.214,0,0,1-.464-.048l2.4-13.63Zm10.261,9.768a2.957,2.957,0,0,0,.644,1.912,2.341,2.341,0,0,0,1.817.644,5.612,5.612,0,0,0,1.439-.18,12.3,12.3,0,0,0,1.231-.389,2.076,2.076,0,0,1,.246.682,4.279,4.279,0,0,1,.076.795,4.529,4.529,0,0,1-.689.246q-.407.113-.852.2t-.9.132a8.1,8.1,0,0,1-.833.047,5.293,5.293,0,0,1-1.884-.293,3.262,3.262,0,0,1-1.249-.814,3.139,3.139,0,0,1-.7-1.231,5.258,5.258,0,0,1-.218-1.543,6.966,6.966,0,0,1,.389-2.281,6.484,6.484,0,0,1,1.117-2.016,5.827,5.827,0,0,1,1.742-1.439,4.675,4.675,0,0,1,2.262-.548,2.967,2.967,0,0,1,1.978.615,2.034,2.034,0,0,1,.729,1.638,2.561,2.561,0,0,1-.406,1.447,3.475,3.475,0,0,1-1.127,1.051,7.124,7.124,0,0,1-1.7.72,16.108,16.108,0,0,1-2.13.454l-.985.151Zm1.193-1.589a10.725,10.725,0,0,0,1.6-.388,4.347,4.347,0,0,0,1.014-.474,1.583,1.583,0,0,0,.53-.539,1.314,1.314,0,0,0,.151-.624.914.914,0,0,0-.3-.71,1.256,1.256,0,0,0-.871-.274,2.328,2.328,0,0,0-1.117.274,3.456,3.456,0,0,0-.918.719,4.336,4.336,0,0,0-.689,1.022,5.967,5.967,0,0,0-.435,1.183l1.042-.19Zm9.787,4.5q.606-1.307,1.079-2.384t.861-1.987q.388-.908.7-1.666t.577-1.439a3.836,3.836,0,0,0,.171-.586,2.43,2.43,0,0,0,.056-.435.912.912,0,0,0-.01-.152.723.723,0,0,1-.01-.113,5.074,5.074,0,0,1,.795-.057h1.193a.614.614,0,0,1,.02.152v.152a2.934,2.934,0,0,1-.19.985q-.189.53-.417,1.06-.851,1.836-1.827,3.927t-2.185,4.627a11.614,11.614,0,0,1-1.022,1.8,5.231,5.231,0,0,1-.975,1.06,2.75,2.75,0,0,1-.975.511,4.058,4.058,0,0,1-1.06.132,4.4,4.4,0,0,1-1.287-.19,4.051,4.051,0,0,1,.114-.795,1.886,1.886,0,0,1,.3-.662,3.22,3.22,0,0,0,.416.106,2.43,2.43,0,0,0,.454.047,2.165,2.165,0,0,0,.587-.085,1.56,1.56,0,0,0,.636-.406,4.851,4.851,0,0,0,.709-.947,13.477,13.477,0,0,0,.833-1.7,2.6,2.6,0,0,1-.322.019h-.624a1.626,1.626,0,0,1-.265-.019q-.322-2.423-.636-4.846t-.636-4.866q.265-.038.483-.057c.145-.013.305-.019.482-.019s.347.006.511.019.328.031.492.057l.965,8.765Zm8.065-2.914a2.953,2.953,0,0,0,.644,1.912,2.342,2.342,0,0,0,1.817.644,5.615,5.615,0,0,0,1.438-.18,12.18,12.18,0,0,0,1.231-.389,2.076,2.076,0,0,1,.247.682,4.268,4.268,0,0,1,.076.795,4.538,4.538,0,0,1-.691.246q-.407.113-.852.2t-.9.132a8.085,8.085,0,0,1-.833.047,5.3,5.3,0,0,1-1.884-.294,3.255,3.255,0,0,1-1.249-.814,3.13,3.13,0,0,1-.7-1.231,5.227,5.227,0,0,1-.218-1.543,6.942,6.942,0,0,1,.389-2.281,6.486,6.486,0,0,1,1.117-2.016,5.819,5.819,0,0,1,1.742-1.439,4.671,4.671,0,0,1,2.262-.548,2.97,2.97,0,0,1,1.978.615,2.036,2.036,0,0,1,.729,1.638,2.562,2.562,0,0,1-.407,1.447,3.472,3.472,0,0,1-1.124,1.052,7.122,7.122,0,0,1-1.7.72,16.112,16.112,0,0,1-2.13.454l-.984.151Zm1.193-1.589a10.744,10.744,0,0,0,1.6-.388,4.363,4.363,0,0,0,1.013-.474,1.567,1.567,0,0,0,.53-.539,1.3,1.3,0,0,0,.152-.624.912.912,0,0,0-.3-.71,1.254,1.254,0,0,0-.871-.274,2.325,2.325,0,0,0-1.117.274,3.443,3.443,0,0,0-.919.719,4.332,4.332,0,0,0-.689,1.022,5.978,5.978,0,0,0-.435,1.183l1.041-.19Zm8.765.89a6.47,6.47,0,0,1-.607-.283,2.482,2.482,0,0,1-.587-.435,2.208,2.208,0,0,1-.445-.673,2.4,2.4,0,0,1-.18-.975A2.669,2.669,0,0,1,325,253.344a3.712,3.712,0,0,1,1.218-.6,5.586,5.586,0,0,1,1.581-.208,6.251,6.251,0,0,1,1.477.17,4.979,4.979,0,0,1,1.1.378,4.647,4.647,0,0,1-.548,1.42,6.1,6.1,0,0,0-.891-.313,4.429,4.429,0,0,0-1.211-.159,2.885,2.885,0,0,0-1.354.284,1.018,1.018,0,0,0-.539.985,1.072,1.072,0,0,0,.255.729,2.423,2.423,0,0,0,.919.558l.417.19q.36.171.748.36a3.114,3.114,0,0,1,.7.464,2.231,2.231,0,0,1,.512.662,2.093,2.093,0,0,1,.2.954,3.327,3.327,0,0,1-.341,1.562,3.031,3.031,0,0,1-.936,1.079,4.2,4.2,0,0,1-1.382.636,6.566,6.566,0,0,1-1.7.208,8.284,8.284,0,0,1-1.483-.132,5.415,5.415,0,0,1-1.2-.34,4.538,4.538,0,0,1,.141-.795,2.814,2.814,0,0,1,.313-.719,5.581,5.581,0,0,0,1.155.331,6.73,6.73,0,0,0,1.231.123,4.429,4.429,0,0,0,.889-.085,2.318,2.318,0,0,0,.72-.265,1.365,1.365,0,0,0,.482-.482,1.463,1.463,0,0,0,.18-.758,1.1,1.1,0,0,0-.341-.88,3.382,3.382,0,0,0-.965-.539l-.605-.246Zm12.927-9.049c.164-.025.343-.044.539-.056s.382-.02.559-.02.347.007.511.02.322.031.474.056l1.854,8.424,4.827-8.424a4.455,4.455,0,0,1,.492-.056q.284-.019.549-.02t.53.02a4.39,4.39,0,0,1,.473.056l-1.738,13.611c-.164.025-.325.044-.483.057s-.318.019-.483.019-.34-.006-.492-.019a3.652,3.652,0,0,1-.417-.057l1.4-10.355-4.354,7.535a6.138,6.138,0,0,1-.776.056,4.8,4.8,0,0,1-.742-.056l-1.7-7.572-2.215,10.393c-.139.025-.284.044-.435.057s-.309.019-.474.019-.3-.006-.454-.019a4.332,4.332,0,0,1-.436-.057l2.991-13.612ZM357.94,254.2a2.82,2.82,0,0,0-.474-.076c-.164-.012-.347-.019-.548-.019a3.307,3.307,0,0,0-1.7.435,4.255,4.255,0,0,0-1.287,1.166,5.464,5.464,0,0,0-.824,1.647,6.351,6.351,0,0,0-.283,1.884,2.608,2.608,0,0,0,.322,1.41,1.071,1.071,0,0,0,.965.5,1.977,1.977,0,0,0,1.136-.378,3.944,3.944,0,0,0,1-1.051,7.285,7.285,0,0,0,.785-1.571,11.74,11.74,0,0,0,.521-1.922l.378-2.025Zm1.079,4.145q-.209,1.136-.332,1.95a9.724,9.724,0,0,0-.123,1.42q0,.246.009.388a3.5,3.5,0,0,0,.048.35,4.414,4.414,0,0,1-.454.057c-.164.013-.318.019-.454.019s-.265-.006-.417-.019a4.329,4.329,0,0,1-.436-.057c-.025-.139-.044-.281-.057-.424s-.019-.325-.019-.539a4.632,4.632,0,0,1,.048-.568q.047-.36.106-.644A4.945,4.945,0,0,1,355.6,261.9a4.131,4.131,0,0,1-1,.577,3.162,3.162,0,0,1-1.2.227,2.23,2.23,0,0,1-1.884-.823,3.592,3.592,0,0,1-.636-2.244,8.4,8.4,0,0,1,.417-2.622,6.918,6.918,0,0,1,1.231-2.272,6.1,6.1,0,0,1,2.025-1.6,6.232,6.232,0,0,1,2.821-.605,9.171,9.171,0,0,1,1.373.106,6.607,6.607,0,0,1,1.221.294l-.947,5.414Zm4.069-5.849q.19-1.06.294-1.827a13.594,13.594,0,0,0,.12-1.373v-.36c0-.089-.006-.2-.019-.34a4.42,4.42,0,0,1,.5-.057c.2-.013.362-.019.5-.019s.268.006.424.019a4.448,4.448,0,0,1,.445.057,1.6,1.6,0,0,1,.038.34v.36c0,.139-.01.306-.028.5s-.041.4-.066.616-.057.436-.094.662-.076.441-.114.643l-1.477,7.989a3.08,3.08,0,0,0-.057.511,1.137,1.137,0,0,0,.085.483.612.612,0,0,0,.218.265.683.683,0,0,0,.293.106,2.644,2.644,0,0,0,.313.019,2.263,2.263,0,0,0,.388-.038c.145-.025.268-.053.371-.076a3.615,3.615,0,0,1,.17,1.174.925.925,0,0,1-.01.142.918.918,0,0,0-.01.122,3.449,3.449,0,0,1-.689.142,6.829,6.829,0,0,1-.805.048,3.977,3.977,0,0,1-.9-.094,1.65,1.65,0,0,1-.7-.341,1.6,1.6,0,0,1-.455-.653,2.774,2.774,0,0,1-.159-1.013,4.066,4.066,0,0,1,.076-.757q.076-.4.152-.777l1.193-6.475Zm10.98,1.7a2.814,2.814,0,0,0-.473-.076c-.164-.012-.347-.019-.549-.019a3.307,3.307,0,0,0-1.7.435,4.264,4.264,0,0,0-1.287,1.166,5.461,5.461,0,0,0-.823,1.647,6.351,6.351,0,0,0-.284,1.884,2.6,2.6,0,0,0,.322,1.41,1.071,1.071,0,0,0,.965.5,1.972,1.972,0,0,0,1.135-.378,3.92,3.92,0,0,0,1-1.051,7.623,7.623,0,0,0,.795-1.571,11.121,11.121,0,0,0,.53-1.922l.36-2.025Zm1.1,4.145q-.208,1.136-.322,1.95a10.469,10.469,0,0,0-.114,1.42v.388a1.991,1.991,0,0,0,.038.35,4.447,4.447,0,0,1-.445.057c-.159.013-.306.019-.445.019s-.284-.006-.435-.019a3.688,3.688,0,0,1-.417-.057c-.025-.1-.048-.212-.066-.331a3.442,3.442,0,0,1-.028-.5,5.828,5.828,0,0,1,.047-.636,4.823,4.823,0,0,1,.143-.748,6.341,6.341,0,0,1-.568.851,4.721,4.721,0,0,1-.795.795,4.113,4.113,0,0,1-1.013.587,3.162,3.162,0,0,1-1.2.227,2.257,2.257,0,0,1-1.893-.823,3.555,3.555,0,0,1-.644-2.244,8.421,8.421,0,0,1,.417-2.622,6.949,6.949,0,0,1,1.231-2.272,6.093,6.093,0,0,1,2.035-1.6,6.244,6.244,0,0,1,2.812-.606c.139,0,.283.006.435.019s.277.025.378.038q.208-1.1.322-1.893a10.086,10.086,0,0,0,.114-1.4v-.378c0-.088-.007-.2-.02-.322a4.439,4.439,0,0,1,.5-.057q.294-.019.5-.019c.127,0,.269,0,.424.01a2.768,2.768,0,0,1,.424.047,4.813,4.813,0,0,1,.057.7,9.335,9.335,0,0,1-.086,1.117c-.056.455-.122.89-.2,1.307l-1.193,6.645Zm5.945,4.354a3.41,3.41,0,0,1-2.649-.975,3.938,3.938,0,0,1-.89-2.755,8.093,8.093,0,0,1,.322-2.186,6.61,6.61,0,0,1,.993-2.082,5.67,5.67,0,0,1,1.686-1.553,4.525,4.525,0,0,1,2.395-.615,3.417,3.417,0,0,1,2.668.984,3.973,3.973,0,0,1,.89,2.764,8.047,8.047,0,0,1-.322,2.2,6.732,6.732,0,0,1-.985,2.074,5.4,5.4,0,0,1-1.685,1.543,4.662,4.662,0,0,1-2.423.606Zm.19-1.5a2.447,2.447,0,0,0,1.524-.483,3.738,3.738,0,0,0,1.031-1.221,6.126,6.126,0,0,0,.587-1.6,7.583,7.583,0,0,0,.19-1.619,2.478,2.478,0,0,0-.483-1.647,1.7,1.7,0,0,0-1.373-.566,2.371,2.371,0,0,0-1.515.492,3.893,3.893,0,0,0-1.023,1.23,5.923,5.923,0,0,0-.577,1.6,7.864,7.864,0,0,0-.18,1.6,2.547,2.547,0,0,0,.464,1.647,1.647,1.647,0,0,0,1.354.568Zm7.818-4.354q.208-1.135.332-1.95a9.712,9.712,0,0,0,.122-1.419c0-.164,0-.294-.01-.389a3.248,3.248,0,0,0-.047-.35,4.2,4.2,0,0,1,.454-.057c.164-.013.318-.02.454-.02s.268.007.424.02a3.5,3.5,0,0,1,.424.057,2.465,2.465,0,0,1,.057.35c.012.132.019.306.019.521a4.692,4.692,0,0,1-.048.681q-.047.322-.106.625a4.266,4.266,0,0,1,.53-.824,4.366,4.366,0,0,1,.795-.766,4.509,4.509,0,0,1,1.013-.568,3.11,3.11,0,0,1,1.183-.227,2.456,2.456,0,0,1,1.77.606,2.482,2.482,0,0,1,.636,1.874,6.146,6.146,0,0,1-.038.636q-.038.35-.1.672l-1.072,6.15c-.152.025-.318.044-.492.057s-.334.019-.474.019-.294-.006-.464-.019a3.641,3.641,0,0,1-.445-.057l1.023-5.831q.056-.3.085-.587c.019-.19.028-.354.028-.492a1.412,1.412,0,0,0-.35-1.079,1.329,1.329,0,0,0-.936-.322,1.859,1.859,0,0,0-1,.312,3.455,3.455,0,0,0-.928.919,6.9,6.9,0,0,0-.786,1.5,10.857,10.857,0,0,0-.558,2.045l-.625,3.54q-.227.038-.492.057c-.176.013-.334.019-.473.019s-.294-.006-.464-.019a3.668,3.668,0,0,1-.446-.057l1-5.622Zm16.811-2.649a2.825,2.825,0,0,0-.474-.076c-.164-.012-.347-.019-.548-.019a3.307,3.307,0,0,0-1.7.436,4.253,4.253,0,0,0-1.287,1.166,5.445,5.445,0,0,0-.823,1.647,6.326,6.326,0,0,0-.284,1.884,2.607,2.607,0,0,0,.322,1.41,1.072,1.072,0,0,0,.966.5,1.972,1.972,0,0,0,1.135-.378,3.933,3.933,0,0,0,1-1.051,7.326,7.326,0,0,0,.786-1.571,11.818,11.818,0,0,0,.52-1.922l.378-2.025Zm1.079,4.145q-.208,1.136-.332,1.95a9.731,9.731,0,0,0-.122,1.42c0,.164,0,.293.01.388a3.252,3.252,0,0,0,.047.35,4.4,4.4,0,0,1-.454.057c-.164.013-.318.019-.454.019s-.265-.006-.417-.019a4.363,4.363,0,0,1-.436-.057c-.025-.139-.044-.281-.057-.424s-.019-.325-.019-.539a4.6,4.6,0,0,1,.048-.568q.047-.36.106-.644a4.758,4.758,0,0,1-.548.843,4.815,4.815,0,0,1-.786.776,4.11,4.11,0,0,1-1,.577,3.162,3.162,0,0,1-1.2.227,2.225,2.225,0,0,1-1.883-.823,3.591,3.591,0,0,1-.636-2.244,8.394,8.394,0,0,1,.417-2.622,6.935,6.935,0,0,1,1.231-2.272,6.114,6.114,0,0,1,2.026-1.6,6.226,6.226,0,0,1,2.82-.605,9.162,9.162,0,0,1,1.373.106,6.6,6.6,0,0,1,1.221.293l-.947,5.414Zm9.427-4.145a2.82,2.82,0,0,0-.473-.076c-.164-.012-.347-.019-.549-.019a3.305,3.305,0,0,0-1.7.436,4.263,4.263,0,0,0-1.287,1.165,5.464,5.464,0,0,0-.823,1.647,6.355,6.355,0,0,0-.284,1.884,2.6,2.6,0,0,0,.322,1.41,1.07,1.07,0,0,0,.965.5,1.976,1.976,0,0,0,1.136-.378,3.928,3.928,0,0,0,1-1.051,7.62,7.62,0,0,0,.795-1.571,11.1,11.1,0,0,0,.53-1.922l.36-2.025Zm1.1,4.145q-.208,1.136-.322,1.95a10.5,10.5,0,0,0-.114,1.42v.388a1.986,1.986,0,0,0,.038.35,4.463,4.463,0,0,1-.445.057c-.159.013-.306.019-.445.019s-.284-.006-.435-.019a3.662,3.662,0,0,1-.417-.057c-.025-.1-.048-.212-.066-.331a3.457,3.457,0,0,1-.028-.5,5.835,5.835,0,0,1,.047-.636,4.922,4.922,0,0,1,.142-.748,6.173,6.173,0,0,1-.568.851,4.716,4.716,0,0,1-.795.795,4.13,4.13,0,0,1-1.013.587,3.165,3.165,0,0,1-1.2.227,2.256,2.256,0,0,1-1.893-.823,3.55,3.55,0,0,1-.644-2.244,8.4,8.4,0,0,1,.417-2.622,6.947,6.947,0,0,1,1.231-2.272,6.092,6.092,0,0,1,2.035-1.6,6.245,6.245,0,0,1,2.812-.606c.139,0,.284.006.435.019s.277.025.378.038q.208-1.1.321-1.893a10.063,10.063,0,0,0,.114-1.4v-.378c0-.088-.007-.2-.02-.322a4.441,4.441,0,0,1,.5-.057q.294-.019.5-.019c.127,0,.268,0,.424.01a2.782,2.782,0,0,1,.424.047,4.808,4.808,0,0,1,.057.7,9.516,9.516,0,0,1-.085,1.117c-.057.455-.123.889-.2,1.306l-1.193,6.645Zm5.945,4.354a3.41,3.41,0,0,1-2.649-.975,3.938,3.938,0,0,1-.891-2.755,8.059,8.059,0,0,1,.322-2.186,6.608,6.608,0,0,1,.993-2.082,5.669,5.669,0,0,1,1.686-1.553,4.524,4.524,0,0,1,2.395-.615,3.419,3.419,0,0,1,2.669.984,3.974,3.974,0,0,1,.89,2.764,8.048,8.048,0,0,1-.322,2.2,6.754,6.754,0,0,1-.984,2.074A5.415,5.415,0,0,1,425.9,262.1a4.662,4.662,0,0,1-2.423.606Zm.19-1.5a2.448,2.448,0,0,0,1.524-.483,3.74,3.74,0,0,0,1.032-1.221,6.131,6.131,0,0,0,.587-1.6,7.584,7.584,0,0,0,.189-1.619,2.479,2.479,0,0,0-.482-1.647,1.7,1.7,0,0,0-1.373-.567,2.372,2.372,0,0,0-1.515.492,3.894,3.894,0,0,0-1.022,1.23,5.89,5.89,0,0,0-.578,1.6,7.864,7.864,0,0,0-.18,1.6,2.546,2.546,0,0,0,.464,1.647,1.647,1.647,0,0,0,1.354.566Z" transform="translate(-162.315 -248.524)" fill="#1a1818" fill-rule="evenodd"/>
        </g>
      </g>
    </g>
  </g>
</svg>
